:version 1.10
:name ASF
:units
  mass 1
  length 1
  angle deg
:documentation
  ASF file generated by Kaydara
:root
  axis xyz
  order  tx ty tz rx ry rz
  position 0 0 0
  orientation 0 0 0
:bonedata
  begin
    id 1
    name RightUpLegDummy
    direction -0.65628 -0.754516 0.00165102
    length 4.76918
    axis 0 0 0 xyz
  end
  begin
    id 2
    name RightUpLeg
    direction -0.145584 -0.923362 0.355256
    length 17.9961
    axis -24.7611 -13.1006 1.78531 xyz
    dof rx ry rz
  end
  begin
    id 3
    name RightLeg
    direction 0.263379 0.172355 -0.949171
    length 13.3386
    axis 89.6202 -21.1929 12.3855 xyz
    dof rx ry rz
  end
  begin
    id 4
    name RightFoot
    direction 0.224283 -0.968777 -0.105675
    length 5.86697
    axis 56.995 -39.6905 17.3365 xyz
    dof rx ry rz
  end
  begin
    id 5
    name RightToes
    direction -0.0806345 -0.9037 0.420506
    length 4.75197
    axis 146.825 -39.7828 17.6019 xyz
    dof rx ry rz
  end
  begin
    id 6
    name SpineDummy
    direction -3.39852e-014 1 9.33296e-014
    length 8.13779
    axis 0 0 0 xyz
  end
  begin
    id 7
    name Spine
    direction -0.156609 0.733703 0.661176
    length 7.14978
    axis 41.2365 5.68757 17.0844 xyz
    dof rx ry rz
  end
  begin
    id 8
    name Spine1
    direction 0 0 0
    length 0
    axis 42.8809 47.8308 -3.36039 xyz
    dof rx ry rz
  end
  begin
    id 9
    name HEadDummy
    direction 0.546431 0.701947 0.456819
    length 3.55512
    axis 42.8809 47.8308 -3.36039 xyz
  end
  begin
    id 10
    name HEad
    direction 0.23444 0.828559 0.508457
    length 7.35827
    axis 51.1864 49.2662 27.4903 xyz
    dof rx ry rz
  end
  begin
    id 11
    name LeftShoulder1Dummy
    direction 0.431183 0.475873 -0.766568
    length 2.49352
    axis 42.8809 47.8308 -3.36039 xyz
  end
  begin
    id 12
    name LeftShoulder1
    direction 0.268187 -0.383402 -0.883786
    length 4.48604
    axis -119.517 0.106469 35.1736 xyz
    dof rx ry rz
  end
  begin
    id 13
    name LeftArm
    direction 0.380567 -0.703221 -0.600541
    length 10.1142
    axis -5.41825 36.2925 7.8293 xyz
    dof rx ry rz
  end
  begin
    id 14
    name LeftForeArm
    direction 0.541071 -0.732356 -0.413396
    length 9.39839
    axis 4.65387 33.7604 7.81644 xyz
    dof rx ry rz
  end
  begin
    id 15
    name LeftHand
    direction 0.847511 -0.389379 -0.360707
    length 3.66142
    axis 7.65593 21.1436 -24.6758 xyz
    dof rx ry rz
  end
  begin
    id 16
    name RightShoulderDummy
    direction -0.692546 0.541855 0.476208
    length 2.49352
    axis 42.8809 47.8308 -3.36039 xyz
  end
  begin
    id 17
    name RightShoulder
    direction -0.870808 -0.316653 0.376065
    length 4.48602
    axis 141.571 51.133 -100.254 xyz
    dof rx ry rz
  end
  begin
    id 18
    name RightArm
    direction 0.366897 -0.87275 0.322015
    length 10.1142
    axis 92.3258 71.2036 138.917 xyz
    dof rx ry rz
  end
  begin
    id 19
    name RightForeArm
    direction 0.702487 -0.694568 0.155197
    length 9.39835
    axis 153.863 41.5092 -176.604 xyz
    dof rx ry rz
  end
  begin
    id 20
    name RightHand
    direction 0.79502 -0.601276 0.0800636
    length 3.66142
    axis 154.247 4.59222 142.9 xyz
    dof rx ry rz
  end
  begin
    id 21
    name LeftUpLegDummy
    direction 0.65628 -0.754516 0.00165102
    length 4.76919
    axis 0 0 0 xyz
  end
  begin
    id 22
    name LeftUpLeg
    direction -0.1277 -0.689368 0.713067
    length 17.9961
    axis -48.3385 -17.8675 0.791927 xyz
    dof rx ry rz
  end
  begin
    id 23
    name LeftLeg
    direction 0.109849 -0.991246 -0.0732378
    length 13.3386
    axis -2.05791 -7.30784 1.72042 xyz
    dof rx ry rz
  end
  begin
    id 24
    name LeftFoot
    direction 0.0448355 -0.272614 0.961078
    length 5.86697
    axis -18.7733 -7.89606 10.2113 xyz
    dof rx ry rz
  end
  begin
    id 25
    name LeftToes
    direction -0.18506 0.293668 0.937823
    length 4.75197
    axis 71.2267 -7.89606 10.2113 xyz
    dof rx ry rz
  end
:hierarchy
  begin
    root RightUpLegDummy SpineDummy LeftUpLegDummy
    RightUpLegDummy RightUpLeg
    RightUpLeg RightLeg
    RightLeg RightFoot
    RightFoot RightToes
    SpineDummy Spine
    Spine Spine1
    Spine1 HEadDummy LeftShoulder1Dummy RightShoulderDummy
    HEadDummy HEad
    LeftShoulder1Dummy LeftShoulder1
    LeftShoulder1 LeftArm
    LeftArm LeftForeArm
    LeftForeArm LeftHand
    RightShoulderDummy RightShoulder
    RightShoulder RightArm
    RightArm RightForeArm
    RightForeArm RightHand
    LeftUpLegDummy LeftUpLeg
    LeftUpLeg LeftLeg
    LeftLeg LeftFoot
    LeftFoot LeftToes
  end

:SAMPLES-PER-SECOND 30
:FULLY-SPECIFIED
:DEGREES
1
root  -1.92927 40.0001 12.528 -178.687 0.0870056 178.686
RightUpLeg  20.9256 10.8402 11.7972
RightLeg  -109.193 -3.62734 15.237
RightFoot  23.142 10.4113 -24.5768
RightToes  -1.27222e-014 -6.36111e-015 6.36111e-015
Spine  -50.8243 -14.9819 -10.5461
Spine1  -1.39053 -11.6422 44.1213
HEad  12.869 -22.2521 -13.886
LeftShoulder1  6.36111e-015 -1.33558e-015 6.49777e-015
LeftArm  36.0176 4.47946 -46.7322
LeftForeArm  4.09114 -23.7888 -6.15254
LeftHand  -1.47324 -1.69339 -12.4135
RightShoulder  -4.77083e-015 -6.36111e-015 -3.18055e-015
RightArm  70.5828 -45.4132 -53.8521
RightForeArm  -0.641094 -5.54006 4.85735
RightHand  1.08956 -0.681534 -7.07169
LeftUpLeg  44.9119 22.8977 20.6268
LeftLeg  -31.1767 5.58215 -14.5258
LeftFoot  5.5315 1.61138 -4.62619
LeftToes  9.54166e-015 -1.91609e-011 -2.3878e-011
2
root  -1.94052 39.9953 12.5437 -178.634 0.163651 178.637
RightUpLeg  20.7175 10.7731 11.6371
RightLeg  -108.971 -3.7029 15.0824
RightFoot  23.0503 10.3596 -24.4995
RightToes  -1.27222e-014 -6.36111e-015 6.36111e-015
Spine  -50.5482 -15.0202 -10.5067
Spine1  -1.46121 -11.6878 44.0699
HEad  12.695 -21.9584 -13.9616
LeftShoulder1  6.36111e-015 -1.33558e-015 6.49777e-015
LeftArm  36.1088 4.39705 -46.9465
LeftForeArm  3.6278 -23.7129 -5.68124
LeftHand  -1.43199 -1.53947 -12.4227
RightShoulder  -4.77083e-015 -6.36111e-015 -3.18055e-015
RightArm  70.1747 -45.7625 -52.9558
RightForeArm  -0.753817 -5.42835 4.71821
RightHand  1.09778 -0.945691 -6.68639
LeftUpLeg  44.8372 23.1576 20.7708
LeftLeg  -31.0486 5.46398 -14.3256
LeftFoot  5.48689 1.59884 -4.59553
LeftToes  9.54166e-015 -1.91609e-011 -2.3878e-011
3
root  -1.96096 39.9875 12.5674 -178.502 0.0447845 178.555
RightUpLeg  20.3546 10.6456 11.34
RightLeg  -108.628 -3.74519 14.9151
RightFoot  22.8639 10.2075 -24.2716
RightToes  -1.27222e-014 -6.36111e-015 6.36111e-015
Spine  -50.2163 -15.2022 -10.5655
Spine1  -1.35705 -11.7611 44.2587
HEad  12.2234 -21.3825 -14.1276
LeftShoulder1  6.36111e-015 -1.33558e-015 6.49777e-015
LeftArm  36.3034 3.89715 -47.6858
LeftForeArm  2.70099 -23.4525 -4.86273
LeftHand  -1.39023 -1.40017 -12.3633
RightShoulder  -4.77083e-015 -6.36111e-015 -3.18055e-015
RightArm  69.0663 -46.2973 -50.5437
RightForeArm  -1.12519 -5.36913 4.46689
RightHand  1.08953 -1.18873 -6.23202
LeftUpLeg  44.6452 23.6459 21.0511
LeftLeg  -30.7698 5.0455 -13.815
LeftFoot  5.39119 1.56042 -4.49637
LeftToes  9.54166e-015 -1.91609e-011 -2.3878e-011
4
root  -1.99373 39.9742 12.592 -178.376 -0.373749 178.502
RightUpLeg  19.9521 10.4383 10.9989
RightLeg  -108.176 -3.72126 14.9453
RightFoot  22.58 10.0018 -23.9606
RightToes  -1.27222e-014 -6.36111e-015 6.36111e-015
Spine  -49.9429 -15.2844 -10.5972
Spine1  -0.908648 -11.7821 44.4575
HEad  11.5355 -20.9117 -14.3415
LeftShoulder1  6.36111e-015 -1.33558e-015 6.49777e-015
LeftArm  36.4966 2.94672 -48.778
LeftForeArm  1.45541 -23.0212 -3.86815
LeftHand  -1.36955 -1.35497 -12.2371
RightShoulder  -4.77083e-015 -6.36111e-015 -3.18055e-015
RightArm  67.1052 -46.9237 -45.5401
RightForeArm  -2.20647 -5.67338 3.69097
RightHand  1.00636 -1.18454 -5.65417
LeftUpLeg  44.4372 24.3615 21.5829
LeftLeg  -30.2651 4.22641 -12.8591
LeftFoot  5.15026 1.52636 -4.42581
LeftToes  9.54166e-015 -1.91609e-011 -2.3878e-011
5
root  -2.04259 39.9489 12.6274 -178.396 -0.905869 178.522
RightUpLeg  19.5859 10.105 10.6868
RightLeg  -107.516 -3.80418 15.0752
RightFoot  22.2227 9.79774 -23.6477
RightToes  -1.27222e-014 -6.36111e-015 6.36111e-015
Spine  -49.3924 -14.7993 -10.2598
Spine1  -0.364907 -11.6488 43.8765
HEad  10.7838 -20.92 -14.4519
LeftShoulder1  6.36111e-015 -1.33558e-015 6.49777e-015
LeftArm  36.9162 1.77479 -49.9011
LeftForeArm  -0.376502 -22.5613 -2.41334
LeftHand  -1.35702 -1.34424 -12.0929
RightShoulder  -4.77083e-015 -6.36111e-015 -3.18055e-015
RightArm  64.1309 -47.5343 -37.175
RightForeArm  -4.30424 -6.76614 2.02073
RightHand  0.834317 -0.927059 -4.83367
LeftUpLeg  44.3844 25.4301 22.6119
LeftLeg  -29.4102 3.02103 -11.3388
LeftFoot  4.69578 1.53012 -4.4895
LeftToes  9.54166e-015 -1.91609e-011 -2.3878e-011
6
root  -2.10747 39.9103 12.6772 -178.555 -1.39902 178.609
RightUpLeg  19.2528 9.6577 10.4226
RightLeg  -106.699 -4.08221 15.1408
RightFoot  21.8368 9.60293 -23.3441
RightToes  -1.27222e-014 -6.36111e-015 6.36111e-015
Spine  -48.3423 -13.6383 -9.43617
Spine1  0.0312849 -11.3273 42.2245
HEad  9.96938 -21.3707 -14.3901
LeftShoulder1  6.36111e-015 -1.33558e-015 6.49777e-015
LeftArm  36.9375 1.23112 -49.7517
LeftForeArm  -2.1122 -23.6017 -0.883589
LeftHand  -1.35035 -1.36382 -11.9113
RightShoulder  -4.77083e-015 -6.36111e-015 -3.18055e-015
RightArm  60.1123 -47.7865 -26.0951
RightForeArm  -7.06865 -8.7035 -0.430715
RightHand  0.593778 -0.502866 -3.73341
LeftUpLeg  44.509 26.8921 24.172
LeftLeg  -28.2478 1.51359 -9.30203
LeftFoot  4.09348 1.56556 -4.66713
LeftToes  9.54166e-015 -1.91609e-011 -2.3878e-011
7
root  -2.18374 39.8667 12.7132 -178.656 -2.01595 178.751
RightUpLeg  18.9363 9.27147 10.249
RightLeg  -105.986 -4.27174 15.4226
RightFoot  21.4618 9.4305 -23.071
RightToes  -1.27222e-014 -6.36111e-015 6.36111e-015
Spine  -47.2222 -12.2348 -8.46764
Spine1  0.416653 -10.8676 40.3045
HEad  9.07216 -21.9564 -14.2967
LeftShoulder1  6.36111e-015 -1.33558e-015 6.49777e-015
LeftArm  35.6985 1.91845 -47.5194
LeftForeArm  -2.77496 -27.2803 -0.147744
LeftHand  -1.37456 -1.54073 -11.5304
RightShoulder  -4.77083e-015 -6.36111e-015 -3.18055e-015
RightArm  55.8757 -47.3148 -15.1824
RightForeArm  -9.59088 -10.7236 -3.0427
RightHand  0.299982 0.106519 -2.43426
LeftUpLeg  44.589 28.4153 25.8003
LeftLeg  -27.0612 -0.11999 -7.09722
LeftFoot  3.47019 1.60169 -4.85569
LeftToes  9.54166e-015 -1.91609e-011 -2.3878e-011
8
root  -2.2656 39.8228 12.7072 -178.561 -2.97777 178.951
RightUpLeg  18.5944 8.97127 10.1419
RightLeg  -105.443 -4.16446 16.1242
RightFoot  21.0736 9.28042 -22.8281
RightToes  -1.27222e-014 -6.36111e-015 6.36111e-015
Spine  -46.4557 -11.0526 -7.80678
Spine1  0.845203 -10.3315 39.045
HEad  8.29617 -22.5014 -14.3256
LeftShoulder1  6.36111e-015 -1.33558e-015 6.49777e-015
LeftArm  34.703 2.73847 -45.7975
LeftForeArm  -3.76432 -30.5718 0.771704
LeftHand  -1.41993 -1.85818 -10.828
RightShoulder  -4.77083e-015 -6.36111e-015 -3.18055e-015
RightArm  52.5952 -46.3695 -7.57436
RightForeArm  -11.1353 -11.7522 -5.11838
RightHand  0.0181757 0.826608 -1.27974
LeftUpLeg  44.3537 29.5672 26.9311
LeftLeg  -26.0077 -1.65133 -5.11616
LeftFoot  2.85206 1.61545 -4.981
LeftToes  9.54166e-015 -1.91609e-011 -2.3878e-011
9
root  -2.34942 39.769 12.6733 -178.378 -4.24652 179.19
RightUpLeg  18.1535 8.43275 9.94372
RightLeg  -104.765 -4.07754 16.7715
RightFoot  20.5562 9.07961 -22.4979
RightToes  -1.27222e-014 -6.36111e-015 6.36111e-015
Spine  -45.6732 -10.2112 -7.55779
Spine1  0.93309 -9.78752 38.449
HEad  7.87035 -23.0868 -14.4146
LeftShoulder1  6.36111e-015 -1.33558e-015 6.49777e-015
LeftArm  34.02 3.48653 -44.8649
LeftForeArm  -4.80406 -32.426 1.51353
LeftHand  -1.42291 -2.04496 -9.9916
RightShoulder  -4.77083e-015 -6.36111e-015 -3.18055e-015
RightArm  50.3987 -45.3349 -3.55242
RightForeArm  -11.7733 -11.6819 -6.34657
RightHand  -0.122469 1.29465 -0.821854
LeftUpLeg  43.7322 30.1809 27.3651
LeftLeg  -24.9059 -2.85208 -3.53339
LeftFoot  2.17898 1.59735 -5.01793
LeftToes  9.54166e-015 -1.91609e-011 -2.3878e-011
10
root  -2.4365 39.695 12.639 -178.287 -5.72124 179.414
RightUpLeg  17.5737 7.28133 9.49221
RightLeg  -103.694 -4.45016 16.8934
RightFoot  19.8218 8.79741 -22.0229
RightToes  -1.27222e-014 -6.36111e-015 6.36111e-015
Spine  -44.3463 -9.64319 -7.5258
Spine1  0.46555 -9.3176 38.023
HEad  7.65161 -23.8812 -14.3979
LeftShoulder1  6.36111e-015 -1.33558e-015 6.49777e-015
LeftArm  33.6088 4.06657 -44.4594
LeftForeArm  -5.55691 -32.8977 1.8608
LeftHand  -1.36037 -1.94868 -9.43727
RightShoulder  -4.77083e-015 -6.36111e-015 -3.18055e-015
RightArm  48.729 -44.0664 -1.35244
RightForeArm  -12.1746 -11.4802 -6.85771
RightHand  -0.0511242 1.20336 -1.28377
LeftUpLeg  42.7054 30.0456 26.8582
LeftLeg  -23.5588 -3.36068 -2.60385
LeftFoot  1.46415 1.54987 -4.96726
LeftToes  9.54166e-015 -1.91609e-011 -2.3878e-011
11
root  -2.53243 39.6054 12.5937 -178.264 -7.5502 179.559
RightUpLeg  16.8435 5.34067 8.70501
RightLeg  -102.338 -5.31248 16.743
RightFoot  18.9511 8.53387 -21.5569
RightToes  -1.27222e-014 -6.36111e-015 6.36111e-015
Spine  -42.7757 -9.39299 -7.62616
Spine1  -0.107584 -8.99503 37.748
HEad  7.24509 -25.0028 -14.2445
LeftShoulder1  6.36111e-015 -1.33558e-015 6.49777e-015
LeftArm  33.3982 4.27129 -44.4862
LeftForeArm  -5.65932 -32.5545 1.79821
LeftHand  -1.31828 -1.81548 -9.40344
RightShoulder  -4.77083e-015 -6.36111e-015 -3.18055e-015
RightArm  47.3946 -42.4712 -0.107962
RightForeArm  -12.7567 -11.7416 -6.96998
RightHand  0.155478 0.724731 -2.24133
LeftUpLeg  41.2403 29.0026 25.209
LeftLeg  -22.005 -3.13675 -2.45825
LeftFoot  0.828127 1.48481 -4.84478
LeftToes  9.54166e-015 -1.91609e-011 -2.3878e-011
12
root  -2.64068 39.5056 12.5084 -178.149 -9.93878 179.574
RightUpLeg  15.9129 2.34513 7.44007
RightLeg  -100.851 -6.59379 16.3966
RightFoot  18.0357 8.31418 -21.1442
RightToes  -1.27222e-014 -6.36111e-015 6.36111e-015
Spine  -41.576 -9.5942 -7.95691
Spine1  -0.318633 -8.87273 37.9002
HEad  6.51439 -26.538 -14.0076
LeftShoulder1  6.36111e-015 -1.33558e-015 6.49777e-015
LeftArm  33.3923 3.91628 -45.0597
LeftForeArm  -4.94123 -31.5747 1.33784
LeftHand  -1.38235 -1.96067 -9.73588
RightShoulder  -4.77083e-015 -6.36111e-015 -3.18055e-015
RightArm  46.5404 -40.9899 -0.20878
RightForeArm  -13.3039 -12.0244 -6.98615
RightHand  0.354838 0.286088 -3.13921
LeftUpLeg  39.5425 27.7996 23.188
LeftLeg  -20.2519 -3.11648 -2.28584
LeftFoot  0.344963 1.41453 -4.67847
LeftToes  9.54166e-015 -1.91609e-011 -2.3878e-011
13
root  -2.7591 39.38 12.3923 -177.94 -12.7295 179.447
RightUpLeg  14.7441 -2.54678 5.42368
RightLeg  -98.9936 -8.79275 14.5708
RightFoot  16.9324 7.97366 -20.5021
RightToes  -1.27222e-014 -6.36111e-015 6.36111e-015
Spine  -40.6086 -10.1995 -8.48688
Spine1  -0.314957 -8.97138 38.2517
HEad  5.64108 -28.5347 -13.6392
LeftShoulder1  6.36111e-015 -1.33558e-015 6.49777e-015
LeftArm  33.756 2.99454 -46.1433
LeftForeArm  -3.81002 -29.6894 0.589798
LeftHand  -1.48304 -2.22256 -10.1234
RightShoulder  -4.77083e-015 -6.36111e-015 -3.18055e-015
RightArm  46.1382 -40.0202 -1.66267
RightForeArm  -13.5318 -11.7607 -7.12364
RightHand  0.512636 -0.0097897 -3.8918
LeftUpLeg  37.5388 26.502 20.8842
LeftLeg  -17.9753 -3.22178 -2.04239
LeftFoot  -0.105703 1.3526 -4.53077
LeftToes  9.54166e-015 -1.91609e-011 -2.3878e-011
14
root  -2.88803 39.2074 12.2807 -177.84 -15.4043 179.233
RightUpLeg  13.5267 -8.3668 3.1396
RightLeg  -96.381 -11.8723 11.4627
RightFoot  15.5493 7.41437 -19.4336
RightToes  -1.27222e-014 -6.36111e-015 6.36111e-015
Spine  -39.3204 -10.8596 -8.97139
Spine1  -0.371315 -9.18773 38.2288
HEad  4.71848 -30.8743 -13.0854
LeftShoulder1  6.36111e-015 -1.33558e-015 6.49777e-015
LeftArm  34.6525 1.53965 -47.6355
LeftForeArm  -2.90442 -26.749 -0.21198
LeftHand  -1.47791 -2.13006 -10.4922
RightShoulder  -4.77083e-015 -6.36111e-015 -3.18055e-015
RightArm  46.055 -39.377 -3.7946
RightForeArm  -13.5617 -10.9417 -7.42358
RightHand  0.692584 -0.339516 -4.72399
LeftUpLeg  35.4902 25.24 18.6042
LeftLeg  -15.0586 -3.13018 -1.78686
LeftFoot  -0.748472 1.32768 -4.532
LeftToes  9.54166e-015 -1.91609e-011 -2.3878e-011
